<svg xmlns="http://www.w3.org/2000/svg" xmlns:xlink="http://www.w3.org/1999/xlink" width="156.023" height="156.023" viewBox="0 0 156.023 156.023"><defs><filter id="a" x="0" y="0" width="156.023" height="156.023" filterUnits="userSpaceOnUse"><feOffset dy="2" input="SourceAlpha"/><feGaussianBlur stdDeviation="7.5" result="b"/><feFlood flood-opacity="0.161"/><feComposite operator="in" in2="b"/><feComposite in="SourceGraphic"/></filter></defs><g transform="translate(22.5 20.5)"><g transform="matrix(1, 0, 0, 1, -22.5, -20.5)" filter="url(#a)"><circle cx="55.512" cy="55.512" r="55.512" transform="translate(22.5 20.5)" fill="#2b67b5"/></g><g transform="translate(10.665 73.17)"><path d="M252.7,363.2c-.087,0-.175.087-.35.087-.087,0-.175-.087-.35-.087Z" transform="translate(-207.591 -356.993)" fill="#e6e9ee"/><path d="M138.318,349.924a55.435,55.435,0,0,1-89.518,0c7.868-8.392,18.533-12.851,27.45-15.124-.787,6.382,2.535,14.949,2.623,14.687,3.322-7.693,14.6-8.392,14.6-8.392s11.277.612,14.687,8.392c.087.175,3.409-8.3,2.623-14.687C119.785,337.073,130.45,341.531,138.318,349.924Z" transform="translate(-48.8 -334.8)" fill="#e6e9ee"/></g><path d="M218.025,284.244h0c0,1.136-.7,7.168-13.463,12.064h-.7c-12.763-4.9-13.463-10.927-13.463-12.064h0a17.608,17.608,0,0,1,1.574-6.644c3.5,3.934,7.693,6.556,12.239,6.556,4.458,0,8.742-2.535,12.239-6.556A16.1,16.1,0,0,1,218.025,284.244Z" transform="translate(-148.788 -216.931)" fill="#ffd05b"/><path d="M234.011,365.523l-2.8,5.595H221.6l-2.8-5.595a26.106,26.106,0,0,1,7.606-1.923A25.491,25.491,0,0,1,234.011,365.523Z" transform="translate(-170.981 -284.135)" fill="#f1543f"/><path d="M218,421.829a57.543,57.543,0,0,0,7.868.525,59.469,59.469,0,0,0,7.868-.525l-3.06-23.429H221.06Z" transform="translate(-170.356 -311.33)" fill="#ff7058"/><g transform="translate(38.049 67.139)"><path d="M267.412,307.2s.612,6.994-13.812,12.326c0,0,11.277.612,14.687,8.392C268.374,328.268,274.93,311.309,267.412,307.2Z" transform="translate(-236.224 -307.2)" fill="#fff"/><path d="M177.659,307.2c-7.431,4.109-.962,20.981-.787,20.719,3.322-7.693,14.687-8.392,14.687-8.392C177.047,314.194,177.659,307.2,177.659,307.2Z" transform="translate(-174.096 -307.2)" fill="#fff"/></g><path d="M220.276,279.348c-3.672,3.934-8.043,6.469-12.938,6.469s-9.267-2.535-12.938-6.469a10.42,10.42,0,0,1,.7-1.748c3.5,3.934,7.693,6.556,12.239,6.556s8.742-2.535,12.239-6.556A10.415,10.415,0,0,1,220.276,279.348Z" transform="translate(-151.914 -216.931)" fill="#f9b54c"/><path d="M186.07,130c-1.836,3.06-4.633,4.9-6.731,4.546-4.2,7.78-10.316,13.55-17.134,13.55s-12.938-5.857-17.134-13.55c-2.1.262-4.9-1.486-6.731-4.546-2.186-3.584-2.273-7.518-.175-8.829a2.734,2.734,0,0,1,1.661-.35,21.088,21.088,0,0,0,3.322,5.77c-2.011-11.1,6.207-12.326,4.808-22.991,0,0,5.158,11.452,19.932,3.409l-1.136,2.185c20.631-4.633,13.725,19.669,13.55,20.281a27.557,27.557,0,0,0,4.721-8.655,2.142,2.142,0,0,1,1.049.35C188.343,122.4,188.255,126.417,186.07,130Z" transform="translate(-106.78 -80.958)" fill="#ffd05b"/><path d="M174.474,31.78c1.661-.175,4.371,1.311,4.371,1.311-7.431-8.48-19.582-3.06-19.582-3.06,4.109-3.5,7.78-3.147,7.78-3.147-17.4-2.623-20.369,7.78-20.369,7.78a6.481,6.481,0,0,1-.7-3.846c-1.224,2.1.087,6.294.087,6.294-1.224-3.06-5.507-2.535-5.507-2.535,3.672.612,4.284,2.885,4.284,2.885-9.179,3.409-7.606,12.938-7.606,12.938l2.185-2.623c-2.71,10.4,4.2,18.446,4.2,18.446-2.011-11.1,6.207-12.326,4.808-22.991,0,0,5.158,11.452,19.932,3.409l-1.136,2.185c20.893-4.721,13.55,20.369,13.55,20.369a28.213,28.213,0,0,0,6.294-19.145l.874,3.5C190.3,37.812,174.474,31.78,174.474,31.78Z" transform="translate(-107.161 -20.677)" fill="#324a5e"/></g></svg>