<svg id="adc239e9-c38c-4229-b70b-50c7df3ef2aa" data-name="Layer 1" xmlns="http://www.w3.org/2000/svg" width="606.35239" height="650.0465" viewBox="0 0 606.35239 650.0465"><path d="M893.82421,752.51786c-14.41965,19.311-44.352,21.34353-44.352,21.34353s-6.55352-29.27679,7.86613-48.58779,44.352-21.34354,44.352-21.34354S908.24386,733.20686,893.82421,752.51786Z" transform="translate(-296.8238 -124.97675)" fill="#e6e6e6"/><path d="M820.36749,759.77743c9.51509,12.74275,29.26658,14.084,29.26658,14.084s4.32447-19.31888-5.19062-32.06163-29.26658-14.084-29.26658-14.084S810.8524,747.03468,820.36749,759.77743Z" transform="translate(-296.8238 -124.97675)" fill="#e6e6e6"/><polygon points="588.056 650.047 330.318 650.047 330.318 647.941 588.438 647.941 588.056 650.047" fill="#3f3d56"/><rect y="18.60159" width="578.34021" height="321.30012" fill="#e6e6e6"/><path d="M328.40644,433.29479H843.581V175.1611H328.40644Z" transform="translate(-296.8238 -124.97675)" fill="#fff"/><rect x="0.84552" width="576.64915" height="28.7479" fill="#f8fff8"/><rect x="60.81141" y="141.20251" width="104.84532" height="74.40633" fill="#e6e6e6"/><rect x="228.35836" y="141.20251" width="289.17004" height="8.45527" fill="#e6e6e6"/><rect x="228.35836" y="175.02357" width="289.17004" height="8.45527" fill="#e6e6e6"/><rect x="228.35836" y="208.84462" width="289.17004" height="8.45526" fill="#e6e6e6"/><path d="M719.86,471.15106l-2.82053,16.21807s-13.39753,37.37205-9.87186,72.6287,6.34619,59.93632,6.34619,59.93632-10.577,88.84677-6.34619,120.57776c0,0,11.28213,15.51293,26.08992-.70513l11.28213-117.0521L756.52692,539.549l10.577,93.07757,7.05133,105.77s9.87187,10.577,24.67966,1.41027l-1.41027-119.87263s12.6924-101.53917,10.577-110.00077-16.21806-41.60285-16.21806-41.60285Z" transform="translate(-296.8238 -124.97675)" fill="#2f2e41"/><path d="M712.80867,741.217l.70513,14.8078s-10.74732,16.76224,2.65021,16.76224c.134,0-.13229.00042,0,0,9.689-.03068,18.44605,4.32984,17.30068-5.2913l-1.61742-13.58634-2.82054-14.8078Z" transform="translate(-296.8238 -124.97675)" fill="#2f2e41"/><path d="M794.51935,741.217l-.70513,14.8078s10.74732,16.76224-2.65021,16.76224c-.134,0,.13229.00042,0,0-9.689-.03068-18.44605,4.32984-17.30068-5.2913l1.61742-13.58634,2.82054-14.8078Z" transform="translate(-296.8238 -124.97675)" fill="#2f2e41"/><circle cx="455.82489" cy="201.26946" r="22.56426" fill="#9f616a"/><path d="M742.77683,341.054s2.82053,32.43612-5.64107,37.37205,35.25666,2.82053,35.25666,2.82053-9.87186-38.07718-9.16673-42.308Z" transform="translate(-296.8238 -124.97675)" fill="#ffb8b8"/><path d="M785.43738,361.85543s-28.20532-12.69239-67.69278,0c0,0-17.27576,4.58337-19.39116,10.22443s23.622,70.16075,20.80143,81.44288a61.2349,61.2349,0,0,0-1.41027,21.154s62.05172-8.4616,76.85951-2.1154c0,0-5.64106-18.33346-4.2308-31.02586s13.39753-71.92357,13.39753-71.92357S797.42464,363.2657,785.43738,361.85543Z" transform="translate(-296.8238 -124.97675)" fill="#f8fff8"/><path d="M810.117,529.67711s-10.577,32.43612.70513,33.14126,6.3462-24.67966,6.3462-24.67966l-1.41027-8.4616Z" transform="translate(-296.8238 -124.97675)" fill="#9f616a"/><path d="M788.963,373.8427l14.80779-4.2308s8.4616,6.34619,8.4616,14.80779-1.41027,62.75685-1.41027,62.75685l10.577,81.09031-16.21806,5.64106-19.0386-87.4365Z" transform="translate(-296.8238 -124.97675)" fill="#f8fff8"/><path d="M694.47521,529.67711s10.577,32.43612-.70513,33.14126-6.3462-24.67966-6.3462-24.67966l1.41027-8.4616Z" transform="translate(-296.8238 -124.97675)" fill="#9f616a"/><path d="M715.6292,373.8427l-14.80779-4.2308s-8.4616,6.34619-8.4616,14.80779,1.41027,62.75685,1.41027,62.75685l-10.577,81.09031,16.21806,5.64106,19.0386-87.4365Z" transform="translate(-296.8238 -124.97675)" fill="#f8fff8"/><path d="M762.52056,293.10495s-19.74373-3.52566-23.97453,22.56426-2.1154,35.96179-9.16673,38.78232-9.16673,6.3462-7.75646,11.98727,6.34619,7.75646-.70514,18.33346,15.51293,7.75646,33.84639,16.21806,60.64145-3.52567,55.00038-13.39753-14.80779-5.64106-10.577-16.92319,5.64106-13.39753,0-20.44886S802.008,299.45115,762.52056,293.10495Z" transform="translate(-296.8238 -124.97675)" fill="#2f2e41"/></svg>