<svg id="a25bd85d-2c59-4178-a879-461194641fab" data-name="Layer 1" xmlns="http://www.w3.org/2000/svg" width="426.56226" height="657.22692" viewBox="0 0 426.56226 657.22692"><title>wash_hands</title><polygon points="424.405 252.235 417.934 252.213 393.117 252.138 387.605 252.127 370.888 252.084 366.757 252.062 364.924 252.062 278.716 251.825 277.346 251.814 276.041 251.814 270.8 251.793 256.002 251.76 248.862 251.739 234.043 251.696 234.043 37.066 416.855 20.921 423.327 20.349 424.405 252.235" opacity="0.2"/><path d="M804.65282,373.5999v.02159l-18.11945-.05391-6.69775-.02159-5.51132-.0108-7.91651-.02159-3.16011-.01073-5.62994-.0108-2.92287-.01079h-1.21875l-1.80115-.0108h-.03238l-13.60037-.03232-2.459-.0108-34.86919-.09709-6.26631-.0216-25.57219-.07544-3.44054-.01079h-1.3805a.03344.03344,0,0,0,.0108-.02159H662.7602l-5.24169-.0216-14.79759-.03232v.0108l-7.13992-.02159-4.90734-.0108h-1.10013l-15.28289-.04312V158.45292l189.28364-16.71736v.57159Z" transform="translate(-386.71887 -121.38654)" fill="#e6e6e6"/><circle cx="322.48322" cy="9.02485" r="7.54977" opacity="0.2"/><circle cx="318.16907" cy="9.02485" r="7.54977" fill="#3f3d56"/><rect x="649.88244" y="126.09724" width="118.63931" height="8.62831" transform="translate(-394.85242 -64.48925) rotate(-4.56805)" opacity="0.2"/><rect x="645.56828" y="126.09724" width="118.63931" height="8.62831" transform="translate(-394.86612 -64.83285) rotate(-4.56805)" fill="#e6e6e6"/><path d="M774.78974,325.72657c-6.3418-24.02985-9.71765-25.885-9.71765-25.885l-35.7644-18.00079-.23725-.08631-20.10394,14.83-8.66071-13.33075-.43139-.3775s-.18335.0755-.53925.21569c-3.1062,1.2511-19.101,7.86255-30.97571,15.7251l-.36663-.05395-14.01026,6.9674-2.513,9.2862-2.90124,10.7099L638.581,372.12531v.0108l7.13989.02161v-.0108l14.79761.03235,2.32965-11.4325,2.91205,11.454h1.305a.03348.03348,0,0,1-.0108.02161h1.38049l3.44056.0108,25.5722.07544,6.2663.02161,34.8692.0971,2.459.01075,13.60035.03234h.0324l1.80115.01081v-.03241l.92749-10.1059.56085-2.82574,2.64246,12.95324.0108.02161,5.63.0108,3.16009.01069,7.91651.0216,5.51135.0108v-.0216C781.31489,362.24592,777.11939,334.57056,774.78974,325.72657Z" transform="translate(-386.71887 -121.38654)" fill="#6c63ff" opacity="0.56"/><path d="M743.74757,254.496l.01391.04822c-.01623.003-.02038-.01343-.01391-.04822-.14234-.49268-1.94861-6.3078-7.11927-3.31531-5.39624,3.123-11.84546-16.48462-11.84546-16.48462s-16.24414,4.47138-26.16015,3.7865a6.14136,6.14136,0,0,1-1.95386-.47,25.30724,25.30724,0,0,0,4.76514,28.76874l-1.75049,15.60522,9,14,20-15s.25329,3.81775,1.07287-9.25806a25.3267,25.3267,0,0,0,14.71082-19.32165C744.06177,253.72913,743.77894,254.32886,743.74757,254.496Z" transform="translate(-386.71887 -121.38654)" fill="#ffb8b8" opacity="0.56"/><path d="M744.46717,253.80683c2.20923-5.02594,8.13147-19.82013-2.26782-28.73413-8.60376-7.37494-38.95313-13.95673-48.65283,5.62323a6.09048,6.09048,0,0,0,3.12231,8.31665c.1402-.28949.29877-.56793.44952-.85114a5.97789,5.97789,0,0,0,1.50434.32117c9.916.68488,26.16015-3.7865,26.16015-3.7865s6.44922,19.60761,11.84546,16.48462c5.17066-2.99249,6.97693,2.82263,7.11927,3.31531.03137-.16718.3142-.76691.7196-1.68921a25.47947,25.47947,0,0,0,.26611-3.37732c.00464.19879.01514.39618.01514.59607A25.47285,25.47285,0,0,1,744.46717,253.80683Z" transform="translate(-386.71887 -121.38654)" fill="#2f2e41" opacity="0.56"/><ellipse cx="166.09504" cy="631.34198" rx="166.09504" ry="25.88494" fill="#e6e6e6"/><polygon points="422.248 579.033 386.117 620.859 385.448 621.635 173.645 589.279 173.645 347.686 421.709 347.686 422.248 579.033" fill="#3f3d56"/><rect x="601.88759" y="541.27425" width="2.15679" height="43.26273" transform="translate(-390.17778 1000.69666) rotate(-85.71085)" fill="#e6e6e6"/><rect x="708.66324" y="549.90544" width="2.15625" height="45.41406" transform="translate(-298.70177 1118.36668) rotate(-85.91438)" fill="#e6e6e6"/><polygon points="385.643 415.097 173.171 402.154 173.04 404.307 270.178 410.224 271.83 604.452 273.987 604.433 272.337 410.356 385.512 417.25 385.643 415.097" fill="#e6e6e6"/><polygon points="422.248 579.033 386.117 620.859 386.117 347.686 421.709 347.686 422.248 579.033" opacity="0.2"/><path d="M574.924,473.92613h-19.4137V460.98366l51.76988-9.70685,3.23562-6.47124,202.76537,5.3927v18.33517l-40.44522,14.76409-26.42421-.74308S706.50575,515.98916,659.05,512.75354,574.924,473.92613,574.924,473.92613Z" transform="translate(-386.71887 -121.38654)" fill="#e6e6e6"/><path d="M751.26512,461.52293l-11.32466,8.089-31.71981-.76578c0,.01079-.01079,0-.01079,0h-.05392l-2.416-.05392h-.01073l-2.00613-.05391-6.331-.151-.52848-.0108-5.59762-.12942-.20492-.01079-6.95659-.16174-.453-.0108-5.14465-.12942-.83043-.01079-6.03986-.151-1.94136-.04311-10.8609-.25884-2.73947-.06471-28.86171-.69028s-20.56776,1.02462-21.5384-4.95053a2.93884,2.93884,0,0,1-.03239-.44217c0-3.39742,3.58076-4.12,6.96739-4.03373a31.44456,31.44456,0,0,1,5.97508.79811l8.28317.20493,5.16618.11862,16.21048.39906,13.8592.33434,4.90741.12942,7.02123.1726,2.78265.06471,10.33243.24805,4.83183.11862,10.203.24811Z" transform="translate(-386.71887 -121.38654)" fill="#ccc"/><circle cx="304.14806" cy="343.37201" r="2.15708" fill="#3f3d56"/><ellipse cx="305.2266" cy="335.82223" rx="20.49225" ry="2.15708" fill="#ccc"/><path d="M677.9507,430.90316h18.40574a0,0,0,0,1,0,0v8.62831a0,0,0,0,1,0,0H669.95071a0,0,0,0,1,0,0v-.62832A8,8,0,0,1,677.9507,430.90316Z" transform="translate(-264.22744 -270.78096) rotate(13.69795)" fill="#3f3d56"/><path d="M671.99249,437.2558h9.70685a0,0,0,0,1,0,0V437.57a4,4,0,0,1-4,4h-1.70686a4,4,0,0,1-4-4v-.31416A0,0,0,0,1,671.99249,437.2558Z" transform="translate(-313.90881 -217.08558) rotate(8.54565)" fill="#3f3d56"/><path d="M694.95931,440.37812l-13.4115-3.26886a4.29959,4.29959,0,0,1-4.48913,2.35977l-1.06656-.16023a4.29942,4.29942,0,0,1-3.64784-4.44272l-2.28393-.55671a8.61683,8.61683,0,0,0-.75571,1.97289l3.03964.7409a4.29942,4.29942,0,0,0,3.64784,4.44272l1.06656.16023a4.29959,4.29959,0,0,0,4.48913-2.35977l13.4115,3.26886,2.04319-8.3829-.49628-.12093Z" transform="translate(-386.71887 -121.38654)" opacity="0.2"/><path d="M692.69747,458.28731h0A7.87632,7.87632,0,0,1,684.832,449.997L686.0135,427.549l14.56028-.53927V450.411A7.8763,7.8763,0,0,1,692.69747,458.28731Z" transform="translate(-386.71887 -121.38654)" fill="#3f3d56"/><path d="M699.49524,427.549H686.38248c2.27379-3.44986.85565-6.98447-2.32734-10.55958a1.43421,1.43421,0,0,1,1.07673-2.38289H690.129c5.17284,0,9.36625,4.82877,9.36625,10.78538Z" transform="translate(-386.71887 -121.38654)" fill="#3f3d56"/><path d="M688.36932,416.98935a1.43418,1.43418,0,0,1,1.07669-2.38287h-4.31415a1.43419,1.43419,0,0,0-1.0767,2.38287c3.183,3.57509,4.6011,7.10971,2.32731,10.5596h4.31416C692.97042,424.09906,691.55227,420.56444,688.36932,416.98935Z" transform="translate(-386.71887 -121.38654)" opacity="0.2"/><path d="M626.1398,440.26214,642.727,446.1246s39.45558,3.14768,34.3361,13.18375-38.88833,3.55208-38.88833,3.55208L622.182,451.757Z" transform="translate(-386.71887 -121.38654)" fill="#ffb8b8"/><path d="M650.961,455.0517a4.30334,4.30334,0,0,0-4.29191,4.09363,3.23013,3.23013,0,0,0-.81127-.54474,4.32681,4.32681,0,1,0-3.60117.58917,3.23158,3.23158,0,1,0,5.40856,2.92951,4.306,4.306,0,1,0,3.29579-7.06757Z" transform="translate(-386.71887 -121.38654)" fill="#fff"/><path d="M658.51075,457.20877a4.30333,4.30333,0,0,0-4.2919,4.09363,3.23,3.23,0,0,0-.81128-.54473,4.32681,4.32681,0,1,0-3.60116.58917,3.23158,3.23158,0,1,0,5.40856,2.92951,4.306,4.306,0,1,0,3.29578-7.06758Z" transform="translate(-386.71887 -121.38654)" fill="#fff"/><path d="M638.21264,439.79034,623.19939,464.586l-31.56886-21.19326L555.37,419.06085,533.508,361.661,511.27935,320.9569l27.85869-8.20767s9.58823.36667,21.98063,23.11309c12.38161,22.75715,23.41505,62.14542,23.41505,62.14542l14.80839,11.52959Z" transform="translate(-386.71887 -121.38654)" fill="#6c63ff"/><path d="M638.21264,439.79034,623.19939,464.586l-31.56886-21.19326L555.37,419.06085,533.508,361.661,511.27935,320.9569l27.85869-8.20767s9.58823.36667,21.98063,23.11309c12.38161,22.75715,23.41505,62.14542,23.41505,62.14542l14.80839,11.52959Z" transform="translate(-386.71887 -121.38654)" opacity="0.2"/><path d="M708.15594,468.84619l-38.46074-.91673-3.05229-3.46214-2.15707-2.4483-2.362-2.67476-2.62084-2.966,4.46517-6.92421,2.12475-3.30032,8.60673,5.65153,6.1045,4.00141s5.11226,1.704,11.19524,4.271C697.65092,462.47205,704.15454,465.62137,708.15594,468.84619Z" transform="translate(-386.71887 -121.38654)" fill="#ffb8b8"/><circle cx="172.57879" cy="123.47733" r="26.37264" fill="#ffb8b8"/><path d="M538.85886,252.11635l-2.63726,38.24033,32.9658,3.9559s0-31.64717,2.63727-35.60307S538.85886,252.11635,538.85886,252.11635Z" transform="translate(-386.71887 -121.38654)" fill="#ffb8b8"/><path d="M612.043,301.56506l-42.70091-18.083s-20.398-15.73937-32.36339-4.10273l-5.37227,7.68074S498.887,304.6508,498.887,319.15575l3.70952,73.39493s-10.54905,40.8776,5.27453,43.51487l85.7111,7.91179s11.86769-14.505,1.31863-32.96581l3.9559-43.51486Z" transform="translate(-386.71887 -121.38654)" fill="#6c63ff"/><path d="M583.033,302.88369l29.00991-1.31863s2.12577,2.24354,8.71893,27.29755S635.77833,395.188,635.77833,395.188l42.14613,53.39251-20.49225,20.49225-55.0055-60.3982-7.526-60.95732Z" transform="translate(-386.71887 -121.38654)" fill="#6c63ff"/><path d="M597.538,441.34007l-94.80543-8.34146s-9.36651,59.76812-8.04788,83.5035,2.63726,60.65708,2.63726,60.65708l-10.549,160.87313,40.8776-5.27452L532.925,599.57594l17.14222-72.52477,19.77949,92.30425L583.033,738.03232l35.60307-3.95589L606.76842,590.34552S617.31748,461.11956,597.538,441.34007Z" transform="translate(-386.71887 -121.38654)" fill="#2f2e41"/><path d="M610.72432,727.48327l11.86769,3.95589s25.054-6.59316,18.46085,10.54906-25.054,14.505-25.054,14.505-22.41674,17.14221-31.64717,3.95589l5.27453-27.69127Z" transform="translate(-386.71887 -121.38654)" fill="#2f2e41"/><path d="M514.46416,727.48327l11.86769,3.95589s25.054-6.59316,18.46085,10.54906-25.054,14.505-25.054,14.505-22.41675,17.14221-31.64717,3.95589l5.27453-27.69127Z" transform="translate(-386.71887 -121.38654)" fill="#2f2e41"/><path d="M538.85886,267.93994s-27.69128-19.77949-13.18632-43.51487c10.06271-16.46626,30.91415-15.16285,42.74213-12.82007A19.98251,19.98251,0,0,1,583.033,223.10644c1.97795,4.61521,1.97795,9.23043-5.93385,9.23043-15.82358,0-7.91179,11.86769-7.91179,11.86769s-10.54906,2.63726-7.91179,11.86769S538.85886,267.93994,538.85886,267.93994Z" transform="translate(-386.71887 -121.38654)" fill="#2f2e41"/><circle cx="320.32615" cy="344.45055" r="3.23562" fill="#fff"/><path d="M703.8094,463.68a4.2841,4.2841,0,0,0-1.607-3.35424,4.33353,4.33353,0,0,0-2.70715-.95992c-.05391,0-.0971.0108-.151.0108a4.29532,4.29532,0,0,0-8.07825-.72267,3.19763,3.19763,0,0,0-4.08764.97071,37.28409,37.28409,0,0,1-9.25388-2.41592,4.28741,4.28741,0,0,0-3.872,2.43751,4.11063,4.11063,0,0,0-.44217,1.87665,4.252,4.252,0,0,0,.62557,2.2002,3.23089,3.23089,0,0,0-2.78265,3.1925,3.10961,3.10961,0,0,0,.18334,1.05694l6.03986.151a2.89789,2.89789,0,0,0,.18333-.61478,4.4401,4.4401,0,0,0,.6471.62557l5.14465.12942.29123-.22652a1.83479,1.83479,0,0,0,.16174.23732l6.95659.16174a1.4416,1.4416,0,0,0,.11862-.151,1.18113,1.18113,0,0,0,.0863.1618l5.59762.12942a3.1814,3.1814,0,0,0,.43145-1.208.43632.43632,0,0,0,.097.05392,3.42147,3.42147,0,0,0-.05392.57166,3.57168,3.57168,0,0,0,.05392.59318l6.331.151a3.34875,3.34875,0,0,0,.0863-.74419,3.25335,3.25335,0,0,0-.69028-1.98454A4.2839,4.2839,0,0,0,703.8094,463.68Zm-11.55118-.0863a3.29935,3.29935,0,0,1-.6363.59318c.06471.16181.097.33435.151.49615a3.075,3.075,0,0,1,.95985-.69028A4.22375,4.22375,0,0,1,692.25822,463.59371Z" transform="translate(-386.71887 -121.38654)" fill="#fff"/><circle cx="349.4467" cy="345.52909" r="3.23562" fill="#fff"/><path d="M732.93,464.75855a4.28408,4.28408,0,0,0-1.607-3.35424,4.33348,4.33348,0,0,0-2.70714-.95992c-.05391,0-.0971.0108-.151.0108a4.29532,4.29532,0,0,0-8.07825-.72267,3.19763,3.19763,0,0,0-4.08764.97071,37.28366,37.28366,0,0,1-9.25388-2.41592,4.28741,4.28741,0,0,0-3.872,2.43751,4.11063,4.11063,0,0,0-.44217,1.87665,4.252,4.252,0,0,0,.62557,2.2002,3.23089,3.23089,0,0,0-2.78265,3.1925,3.10989,3.10989,0,0,0,.18333,1.05694l6.03986.151a2.89707,2.89707,0,0,0,.18334-.61477,4.44053,4.44053,0,0,0,.64709.62557l5.14466.12942.29122-.22652a1.83655,1.83655,0,0,0,.16175.23732l6.95659.16174a1.44292,1.44292,0,0,0,.11862-.151,1.18113,1.18113,0,0,0,.0863.1618l5.59762.12942a3.18138,3.18138,0,0,0,.43144-1.208.43638.43638,0,0,0,.097.05392,3.42041,3.42041,0,0,0-.05392.57166,3.57061,3.57061,0,0,0,.05392.59318l6.331.151a3.34882,3.34882,0,0,0,.0863-.74419,3.25338,3.25338,0,0,0-.69028-1.98455A4.28384,4.28384,0,0,0,732.93,464.75855Zm-11.55118-.0863a3.29964,3.29964,0,0,1-.6363.59318c.06471.16181.097.33434.151.49615a3.07468,3.07468,0,0,1,.95985-.69028A4.22375,4.22375,0,0,1,721.37878,464.67225Z" transform="translate(-386.71887 -121.38654)" fill="#fff"/><circle cx="302.79988" cy="344.18091" r="2.42671" fill="#fff"/><path d="M687.092,463.94964a3.2131,3.2131,0,0,0-1.20526-2.51568,3.25016,3.25016,0,0,0-2.03036-.71993c-.04043,0-.07282.00809-.11325.00809a3.22149,3.22149,0,0,0-6.05869-.542,2.39823,2.39823,0,0,0-3.06573.728,27.964,27.964,0,0,1-6.94041-1.81194,3.21555,3.21555,0,0,0-2.904,1.82813,3.083,3.083,0,0,0-.33163,1.40749,3.1889,3.1889,0,0,0,.46918,1.65014,2.42318,2.42318,0,0,0-2.087,2.39438,2.3323,2.3323,0,0,0,.1375.79271l4.52989.11326a2.1729,2.1729,0,0,0,.1375-.46109,3.33012,3.33012,0,0,0,.48533.46918l3.85849.09707.21842-.16989a1.37527,1.37527,0,0,0,.1213.178l5.21745.12131a1.08092,1.08092,0,0,0,.089-.11326.887.887,0,0,0,.06473.12136l4.19821.09706a2.38625,2.38625,0,0,0,.32359-.906.32723.32723,0,0,0,.07277.04044,2.566,2.566,0,0,0-.04044.42874,2.67875,2.67875,0,0,0,.04044.44489l4.74827.11326a2.51183,2.51183,0,0,0,.06472-.55815,2.44,2.44,0,0,0-.51771-1.4884A3.21294,3.21294,0,0,0,687.092,463.94964Zm-8.66338-.06472a2.47449,2.47449,0,0,1-.47723.44489c.04853.12135.07278.25075.11326.37211a2.30606,2.30606,0,0,1,.71989-.51771A3.16788,3.16788,0,0,1,678.42866,463.88492Z" transform="translate(-386.71887 -121.38654)" fill="#fff"/><circle cx="268.28663" cy="344.18091" r="2.42671" fill="#fff"/><path d="M652.57879,463.94964a3.2131,3.2131,0,0,0-1.20526-2.51568,3.25018,3.25018,0,0,0-2.03036-.71993c-.04044,0-.07282.00809-.11326.00809a3.22149,3.22149,0,0,0-6.05869-.542,2.39822,2.39822,0,0,0-3.06573.728,27.964,27.964,0,0,1-6.94041-1.81194,3.21556,3.21556,0,0,0-2.904,1.82813,3.083,3.083,0,0,0-.33163,1.40749,3.189,3.189,0,0,0,.46918,1.65014,2.42318,2.42318,0,0,0-2.087,2.39438,2.33254,2.33254,0,0,0,.1375.79271l4.5299.11326a2.1729,2.1729,0,0,0,.1375-.46109,3.33056,3.33056,0,0,0,.48532.46918l3.85849.09707.21842-.16989a1.37533,1.37533,0,0,0,.12131.178l5.21744.12131a1.07973,1.07973,0,0,0,.089-.11326.88577.88577,0,0,0,.06472.12136l4.19822.09706a2.38607,2.38607,0,0,0,.32358-.906.32706.32706,0,0,0,.07278.04044,2.565,2.565,0,0,0-.04044.42874,2.67768,2.67768,0,0,0,.04044.44489l4.74826.11326a2.51124,2.51124,0,0,0,.06473-.55815,2.44,2.44,0,0,0-.51771-1.4884A3.21294,3.21294,0,0,0,652.57879,463.94964Zm-8.66339-.06472a2.47444,2.47444,0,0,1-.47722.44489c.04853.12135.07277.25075.11326.37211a2.3059,2.3059,0,0,1,.71988-.51771A3.16877,3.16877,0,0,1,643.9154,463.88492Z" transform="translate(-386.71887 -121.38654)" fill="#fff"/><path d="M768.25212,432.87644V426.4052h-5.3927v1.07854c-.59568,0-1.07854.72432-1.07854,1.61781s.48286,1.61781,1.07854,1.61781v2.15708h-4.31416v21.57078h14.021V432.87644Z" transform="translate(-386.71887 -121.38654)" fill="#3f3d56"/></svg>