<svg xmlns="http://www.w3.org/2000/svg" width="50.433" height="50.433" viewBox="0 0 50.433 50.433"><path d="M43.463,23.88H28.182A4.428,4.428,0,0,0,23.759,28.3v15.28a4.429,4.429,0,0,0,4.423,4.424h15.28a4.429,4.429,0,0,0,4.424-4.424V28.3A4.428,4.428,0,0,0,43.463,23.88Zm-7.64,20.006a7.943,7.943,0,1,1,7.943-7.943A7.952,7.952,0,0,1,35.823,43.886Zm8.2-14.243A1.879,1.879,0,1,1,45.9,27.764,1.882,1.882,0,0,1,44.021,29.643Z" transform="translate(-10.606 -10.66)" fill="#6a453b"/><path d="M41.436,36.971a4.586,4.586,0,1,0,4.586,4.586A4.592,4.592,0,0,0,41.436,36.971Z" transform="translate(-16.219 -16.273)" fill="#6a453b"/><path d="M25.216,0A25.216,25.216,0,1,0,50.433,25.216,25.217,25.217,0,0,0,25.216,0ZM40.385,32.8a7.661,7.661,0,0,1-7.653,7.653H17.7A7.661,7.661,0,0,1,10.048,32.8V17.769A7.661,7.661,0,0,1,17.7,10.116H32.732a7.661,7.661,0,0,1,7.653,7.653Z" fill="#6a453b"/></svg>