<svg xmlns="http://www.w3.org/2000/svg" width="50.799" height="50.799" viewBox="0 0 50.799 50.799"><g transform="translate(0 0.001)"><circle cx="25.4" cy="25.4" r="25.4" transform="translate(0 -0.001)" fill="#007ab9"/><g transform="translate(12.256 10.852)"><path d="M55.388,40.559V51.031H49.317v-9.77c0-2.453-.877-4.128-3.075-4.128a3.321,3.321,0,0,0-3.114,2.22,4.155,4.155,0,0,0-.2,1.48v10.2H36.855s.081-16.547,0-18.26h6.072v2.588c-.012.02-.029.04-.04.06h.04v-.06A6.028,6.028,0,0,1,48.4,32.342c3.994,0,6.989,2.61,6.989,8.217ZM30.5,23.969a3.164,3.164,0,1,0-.08,6.31h.039a3.165,3.165,0,1,0,.04-6.31ZM27.429,51.031H33.5V32.771H27.429Z" transform="translate(-27.068 -23.969)" fill="#f1f2f2"/></g></g></svg>