<svg xmlns="http://www.w3.org/2000/svg" width="50.799" height="50.799" viewBox="0 0 50.799 50.799"><g transform="translate(-0.001 0)"><circle cx="25.4" cy="25.4" r="25.4" transform="translate(0.001 0)" fill="#55acee"/><g transform="translate(11.366 15.407)"><path d="M54.7,36.875a12.113,12.113,0,0,1-3.487.955,6.088,6.088,0,0,0,2.67-3.358,12.154,12.154,0,0,1-3.855,1.473,6.076,6.076,0,0,0-10.346,5.538,17.234,17.234,0,0,1-12.514-6.344,6.078,6.078,0,0,0,1.879,8.106,6.028,6.028,0,0,1-2.75-.76c0,.026,0,.052,0,.077a6.075,6.075,0,0,0,4.87,5.953,6.095,6.095,0,0,1-2.742.105,6.078,6.078,0,0,0,5.671,4.216A12.256,12.256,0,0,1,25.1,55.349a17.173,17.173,0,0,0,9.306,2.728c11.167,0,17.274-9.251,17.274-17.275,0-.263-.006-.525-.018-.785a12.312,12.312,0,0,0,3.03-3.142Z" transform="translate(-25.103 -34.028)" fill="#f1f2f2"/></g></g></svg>